<svg width="64" height="65" viewBox="0 0 64 65" fill="none" xmlns="http://www.w3.org/2000/svg">
<path d="M51.2595 43.8216C45.0459 54.584 33.8072 63.3817 20.2993 51.9291C6.70791 50.5778 5.62677 31.8253 11.8404 21.063C18.0541 10.3006 29.2973 10.0294 38.9337 19.6533C53.6698 23.2891 57.4732 33.0592 51.2595 43.8216Z" fill="#F78066"/>
<path d="M42.338 11.5421C40.2869 11.1224 38.115 18.023 37.1076 21.4231C37.879 20.9129 42.1478 15.7326 44.0183 14.4234L42.338 11.5421Z" fill="#895050"/>
<path d="M50.2383 17.0883C45.3786 16.2688 40.0164 19.0488 37.9428 20.5412C45.6921 31.4702 57.1782 26.0605 61.9526 21.9895C60.0727 20.6972 55.0979 17.9078 50.2383 17.0883Z" fill="#8AC367"/>
</svg>
