<svg width="681" height="509" viewBox="0 0 681 509" fill="none" xmlns="http://www.w3.org/2000/svg">
<mask id="path-1-inside-1_2691_1777" fill="white">
<path fill-rule="evenodd" clip-rule="evenodd" d="M537.19 423.716C624.073 381.439 680.766 311.92 680.766 233.324C680.766 104.463 528.371 0 340.383 0C152.395 0 0 104.463 0 233.324C0 362.185 152.395 466.648 340.383 466.648C379.822 466.648 417.695 462.05 452.922 453.594L554.512 509L537.19 423.716Z"/>
</mask>
<path fill-rule="evenodd" clip-rule="evenodd" d="M537.19 423.716C624.073 381.439 680.766 311.92 680.766 233.324C680.766 104.463 528.371 0 340.383 0C152.395 0 0 104.463 0 233.324C0 362.185 152.395 466.648 340.383 466.648C379.822 466.648 417.695 462.05 452.922 453.594L554.512 509L537.19 423.716Z" fill="white"/>
<path d="M537.19 423.716L535.878 421.018L533.788 422.035L534.25 424.313L537.19 423.716ZM452.922 453.594L454.359 450.96L453.345 450.407L452.222 450.676L452.922 453.594ZM554.512 509L553.076 511.634L558.735 514.72L557.452 508.403L554.512 509ZM677.766 233.324C677.766 310.348 622.174 379.027 535.878 421.018L538.503 426.413C625.973 383.851 683.766 313.492 683.766 233.324H677.766ZM340.383 3C433.85 3 518.337 28.9744 579.374 70.8135C640.424 112.662 677.766 170.17 677.766 233.324H683.766C683.766 167.617 644.91 108.463 582.766 65.8645C520.608 23.2569 434.904 -3 340.383 -3V3ZM3 233.324C3 170.17 40.3415 112.662 101.392 70.8135C162.429 28.9744 246.916 3 340.383 3V-3C245.862 -3 160.157 23.2569 97.9997 65.8645C35.8558 108.463 -3 167.617 -3 233.324H3ZM340.383 463.648C246.916 463.648 162.429 437.673 101.392 395.834C40.3415 353.986 3 296.478 3 233.324H-3C-3 299.031 35.8558 358.185 97.9997 400.783C160.157 443.391 245.862 469.648 340.383 469.648V463.648ZM452.222 450.676C417.228 459.077 379.59 463.648 340.383 463.648V469.648C380.054 469.648 418.162 465.023 453.623 456.511L452.222 450.676ZM555.949 506.366L454.359 450.96L451.486 456.227L553.076 511.634L555.949 506.366ZM534.25 424.313L551.572 509.597L557.452 508.403L540.13 423.119L534.25 424.313Z" fill="#707070" mask="url(#path-1-inside-1_2691_1777)"/>
</svg>
