<svg width="42" height="43" viewBox="0 0 42 43" fill="none" xmlns="http://www.w3.org/2000/svg">
<mask id="mask0_2697_1784" style="mask-type:alpha" maskUnits="userSpaceOnUse" x="-1" y="0" width="43" height="43">
<rect x="-0.00585938" y="0.140137" width="42.0059" height="42.0059" fill="#D9D9D9"/>
</mask>
<g mask="url(#mask0_2697_1784)">
<path d="M20.9968 38.6455C17.613 38.6455 14.7251 37.4495 12.3331 35.0575C9.94112 32.6655 8.74512 29.7776 8.74512 26.3938V15.8923C8.74512 12.5085 9.94112 9.62063 12.3331 7.22863C14.7251 4.83663 17.613 3.64062 20.9968 3.64062C24.3806 3.64062 27.2685 4.83663 29.6605 7.22863C32.0525 9.62063 33.2485 12.5085 33.2485 15.8923V26.3938C33.2485 29.7776 32.0525 32.6655 29.6605 35.0575C27.2685 37.4495 24.3806 38.6455 20.9968 38.6455ZM22.7471 15.8923H29.748C29.748 13.792 29.0844 11.9397 27.7571 10.3353C26.4299 8.73092 24.7599 7.72453 22.7471 7.31614V15.8923ZM12.2456 15.8923H19.2466V7.31614C17.2338 7.72453 15.5638 8.73092 14.2365 10.3353C12.9092 11.9397 12.2456 13.792 12.2456 15.8923ZM20.9968 35.145C23.418 35.145 25.4818 34.2918 27.1883 32.5853C28.8948 30.8788 29.748 28.815 29.748 26.3938V19.3928H12.2456V26.3938C12.2456 28.815 13.0988 30.8788 14.8053 32.5853C16.5118 34.2918 18.5757 35.145 20.9968 35.145Z" fill="#7D7D7D"/>
</g>
</svg>
