<svg width="341" height="341" viewBox="0 0 341 341" fill="none" xmlns="http://www.w3.org/2000/svg">
<g clip-path="url(#clip0_2199_1185)">
<mask id="mask0_2199_1185" style="mask-type:luminance" maskUnits="userSpaceOnUse" x="93" y="176" width="162" height="78">
<path d="M126.759 251.039C126.759 251.039 163.207 239.059 198.006 252.704C200.779 253.79 203.922 253.153 206.03 251.05C213.299 243.81 231.156 227.595 251.406 220.878C254.538 219.838 255.35 215.791 252.895 213.586C246.052 207.419 232.361 199.957 213.675 213.552C213.675 213.552 186.184 179.395 157.029 176.894C127.873 174.394 97.6038 180.503 93.7164 206.05C89.829 231.596 126.759 251.039 126.759 251.039Z" fill="white"/>
</mask>
<g mask="url(#mask0_2199_1185)">
<path d="M126.759 251.039C126.759 251.039 163.207 239.059 198.006 252.704C200.779 253.79 203.922 253.153 206.03 251.05C213.299 243.81 231.156 227.595 251.406 220.878C254.538 219.838 255.35 215.791 252.895 213.586C246.052 207.419 232.361 199.957 213.675 213.552C213.675 213.552 186.184 179.395 157.029 176.894C127.873 174.394 97.6038 180.503 93.7164 206.05C89.829 231.596 126.759 251.039 126.759 251.039Z" fill="#DEC19F"/>
</g>
<mask id="mask1_2199_1185" style="mask-type:luminance" maskUnits="userSpaceOnUse" x="48" y="176" width="207" height="86">
<path d="M126.759 251.039C126.759 251.039 163.207 239.059 198.006 252.704C200.779 253.79 203.922 253.153 206.03 251.05C213.299 243.81 231.156 227.595 251.406 220.878C254.538 219.838 255.35 215.791 252.895 213.586C246.052 207.419 232.361 199.957 213.675 213.552C213.675 213.552 186.184 179.395 157.029 176.894C127.873 174.394 97.6038 180.503 93.7164 206.05C89.829 231.596 126.759 251.039 126.759 251.039Z" fill="white"/>
<path d="M141.501 248.499C136.501 250.999 125.701 257.099 122.501 261.499C112.668 257.832 87.901 252.099 67.501 258.499C47.101 264.899 57.6677 260.499 65.501 257.499C60.6671 256.999 50.4993 253.799 48.4993 244.999C45.9993 233.999 107.999 221.499 127.999 234.999C128.877 235.591 129.681 236.136 130.417 236.637C141.589 232.261 163.664 225.22 169.5 229.5L141.501 248.499Z" fill="white"/>
</mask>
<g mask="url(#mask1_2199_1185)">
<path opacity="0.5" d="M274.49 151.627H77.8867V278.53H274.49V151.627Z" fill="#725443"/>
</g>
<path d="M138.712 340.955C137.337 341.023 135.314 341.006 133.91 340.977C103.544 339.903 73.1947 330.833 48.7223 312.277C2.57932 276.097 -5.17843 226.186 34.3889 181.395C37.6341 177.752 41.118 174.263 44.8065 171.046C59.3899 157.662 79.4123 177.042 66.585 191.938C56.4005 202.298 47.1253 216.495 44.8406 230.59C42.8855 241.894 46.1478 252.266 52.8825 261.019C67.3807 280.075 90.5062 290.197 113.995 292.851C121.1 293.641 128.425 294.016 135.456 293.3C166.742 292.322 170.482 337.289 138.712 340.955Z" fill="#D27C41"/>
<path d="M34.293 80.26C34.293 80.26 45.3982 1.11961 135.928 0.00567767C226.458 -1.10826 234.227 95.2527 234.227 95.2527C234.227 95.2527 202.849 140.236 123.152 134.684C43.4545 129.137 34.293 80.26 34.293 80.26Z" fill="#CABB9D"/>
<path d="M97.6046 6.12109C65.3062 13.8732 26.5004 14.1119 10.6951 13.8277C7.52947 13.7709 5.54599 17.232 7.20552 19.9259C14.2813 31.4176 29.9616 54.7988 41.7034 57.0267C57.3382 59.9877 97.6046 6.12109 97.6046 6.12109Z" fill="#CABB9D"/>
<path d="M215.897 69.7117C215.897 69.7117 246.649 66.1823 265.404 30.5422C266.717 28.0529 264.916 25.0577 262.102 25.0521C246.996 25.0236 207.236 23.9324 188.492 13.7877C165.082 1.11955 215.897 69.7117 215.897 69.7117Z" fill="#CABB9D"/>
<path d="M119.792 271.573C134.307 249.369 157.944 236.388 168.777 231.313C171.937 229.829 172.965 225.8 170.829 223.038C154.057 201.327 128.471 222.162 128.471 222.162C125.459 210.5 106.493 203.004 106.493 203.004C238.398 203.282 168.14 123.585 168.14 123.585L76.7808 116.367C76.7808 116.367 48.7335 144.136 34.2922 174.684C19.8508 205.232 24.2952 242.162 62.8964 252.716C89.4489 259.974 104.964 268.55 112.063 273.193C114.637 274.875 118.104 274.154 119.792 271.573Z" fill="white"/>
<mask id="mask2_2199_1185" style="mask-type:luminance" maskUnits="userSpaceOnUse" x="83" y="47" width="42" height="42">
<path d="M104.287 88.1477C115.646 88.1477 124.855 78.9391 124.855 67.5797C124.855 56.2203 115.646 47.0117 104.287 47.0117C92.9274 47.0117 83.7188 56.2203 83.7188 67.5797C83.7188 78.9391 92.9274 88.1477 104.287 88.1477Z" fill="white"/>
</mask>
<g mask="url(#mask2_2199_1185)">
<path d="M104.287 88.1477C115.646 88.1477 124.855 78.9391 124.855 67.5797C124.855 56.2203 115.646 47.0117 104.287 47.0117C92.9274 47.0117 83.7188 56.2203 83.7188 67.5797C83.7188 78.9391 92.9274 88.1477 104.287 88.1477Z" fill="#BA1647"/>
</g>
<mask id="mask3_2199_1185" style="mask-type:luminance" maskUnits="userSpaceOnUse" x="83" y="47" width="42" height="42">
<path d="M104.287 88.1477C115.646 88.1477 124.855 78.9391 124.855 67.5797C124.855 56.2203 115.646 47.0117 104.287 47.0117C92.9274 47.0117 83.7188 56.2203 83.7188 67.5797C83.7188 78.9391 92.9274 88.1477 104.287 88.1477Z" fill="white"/>
</mask>
<g mask="url(#mask3_2199_1185)">
<path d="M128.468 61.9297H77.8867V98.5872H128.468V61.9297Z" fill="white"/>
</g>
<path d="M140.5 42.0004C136.9 50.0004 73 80.3337 41.5 94.5004C47.6667 103.667 63.5 121.6 77.5 120C95 118 111.5 127 116.5 144C120.5 157.6 149.5 159.667 163.5 159L173 130C193.8 128.4 223 105.667 235 94.5004L230.5 80.5004C182 86.0004 145 32.0004 140.5 42.0004Z" fill="white"/>
<mask id="mask4_2199_1185" style="mask-type:luminance" maskUnits="userSpaceOnUse" x="151" y="51" width="42" height="42">
<path d="M172.045 92.593C183.404 92.593 192.613 83.3844 192.613 72.025C192.613 60.6656 183.404 51.457 172.045 51.457C160.685 51.457 151.477 60.6656 151.477 72.025C151.477 83.3844 160.685 92.593 172.045 92.593Z" fill="white"/>
</mask>
<g mask="url(#mask4_2199_1185)">
<path d="M172.045 92.593C183.404 92.593 192.613 83.3844 192.613 72.025C192.613 60.6656 183.404 51.457 172.045 51.457C160.685 51.457 151.477 60.6656 151.477 72.025C151.477 83.3844 160.685 92.593 172.045 92.593Z" fill="#BA1647"/>
</g>
<mask id="mask5_2199_1185" style="mask-type:luminance" maskUnits="userSpaceOnUse" x="151" y="51" width="49" height="42">
<path d="M172.045 92.593C183.404 92.593 192.613 83.3844 192.613 72.025C192.613 60.6656 183.404 51.457 172.045 51.457C160.685 51.457 151.477 60.6656 151.477 72.025C151.477 83.3844 160.685 92.593 172.045 92.593Z" fill="white"/>
<path d="M198.5 67H183.5C186.333 68 190.5 71.5 184.5 77.5C178.5 83.5 173.666 82 172 80.5C169 81.5 166.2 83.5 179 83.5C191.8 83.5 197.333 72.5 198.5 67Z" fill="white" stroke="white"/>
</mask>
<g mask="url(#mask5_2199_1185)">
<path d="M203.594 67H150V101.714H203.594V67Z" fill="white"/>
</g>
<path d="M83.0016 75.9995C168 40.355 151.668 15.9995 139.002 0.999474C134.502 -1.50053 111.502 0.999474 95.5016 6.99947C79.5016 12.9995 24.5016 15.4995 16.0016 13.9995C9.2016 12.7995 7 15.5 6.5 19C34 65 46 53.5 41.5 58C38 61.5 35.5016 74.8328 34.5016 80.9995C35.3016 84.9995 39.5016 91.3328 41.5016 93.9995C49.9016 89.9995 72.6683 80.3328 83.0016 75.9995Z" fill="#786060" stroke="#786060"/>
<path d="M92.5 83C85.3 83 82.1667 70.3333 81.5 64H102.5C95.7 75.6 107 78.5 113.5 78.5C109.5 80 99.7 83 92.5 83Z" fill="white"/>
<path d="M108.154 77.4871C112.448 77.4871 115.929 74.0062 115.929 69.7123C115.929 65.4184 112.448 61.9375 108.154 61.9375C103.86 61.9375 100.379 65.4184 100.379 69.7123C100.379 74.0062 103.86 77.4871 108.154 77.4871Z" fill="black"/>
<path d="M176.744 79.9812C181.037 79.9812 184.518 76.5003 184.518 72.2064C184.518 67.9125 181.037 64.4316 176.744 64.4316C172.45 64.4316 168.969 67.9125 168.969 72.2064C168.969 76.5003 172.45 79.9812 176.744 79.9812Z" fill="black"/>
<path d="M190 67C186.4 62.2 123.5 58.5 138.499 0.5C156.344 0.5 171.499 4 192.499 15.5C214.54 21.9314 243.678 26.0043 251.999 25.5C265.199 24.7 266.499 26.8333 265.499 28C259.099 46.8 237.499 61.8333 227.499 67L231.499 79.5C214.299 83.5 198.332 76.8333 192.499 73C192.899 70.2 190.833 68.5 190 67Z" fill="#D27C41" stroke="#D27C41"/>
<path d="M130.649 64.0455H82.0511C80.7325 64.0455 79.6641 62.977 79.6641 61.6585C79.6641 60.3399 80.7325 59.2715 82.0511 59.2715H130.649C131.968 59.2715 133.036 60.3399 133.036 61.6585C133.036 62.977 131.968 64.0455 130.649 64.0455Z" fill="#604910"/>
<path d="M198.184 66.8189H149.586C148.268 66.8189 147.199 65.7505 147.199 64.4319C147.199 63.1134 148.268 62.0449 149.586 62.0449H198.184C199.503 62.0449 200.571 63.1134 200.571 64.4319C200.571 65.7505 199.503 66.8189 198.184 66.8189Z" fill="#604910"/>
<path d="M198.501 67H183.501C189.502 70.6 188.335 77.1667 187.001 80C183.668 81.6667 179.301 84.8 188.501 84C197.701 83.2 199.001 72.3333 198.501 67Z" fill="white"/>
<path d="M138.73 90.092C143.959 90.092 148.199 87.2701 148.199 83.7891C148.199 80.3082 143.959 77.4863 138.73 77.4863C133.501 77.4863 129.262 80.3082 129.262 83.7891C129.262 87.2701 133.501 90.092 138.73 90.092Z" fill="#BA1647"/>
<path d="M153.417 108.199C152.939 108.199 152.462 108.057 152.041 107.762C136.48 96.7871 119.044 104.568 118.873 104.647C117.674 105.198 116.259 104.67 115.708 103.476C115.157 102.277 115.679 100.862 116.873 100.311C117.686 99.9357 136.935 91.2686 154.798 103.857C155.878 104.619 156.133 106.108 155.372 107.188C154.906 107.847 154.167 108.199 153.417 108.199Z" fill="#BA1647"/>
<path d="M110.182 205.356C104.373 205.356 97.9682 204.589 90.9152 202.816C75.502 198.945 65.2493 191.17 60.4525 179.701C49.9781 154.689 69.2617 121.396 70.0915 119.992C70.7621 118.856 72.2227 118.475 73.3594 119.146C74.496 119.816 74.8768 121.277 74.2119 122.413C74.0243 122.737 55.3091 155.07 64.8685 177.871C69.0571 187.868 78.2186 194.7 92.086 198.184C114.939 203.924 133.324 199.514 146.726 185.067C153.943 177.286 157.746 168.511 159.343 164.078C150.306 163.646 125.123 161.145 114.046 146.693C113.245 145.647 113.444 144.147 114.49 143.345C115.535 142.544 117.036 142.743 117.837 143.788C129.687 159.241 161.991 159.389 162.582 159.389C162.588 159.389 162.593 159.389 162.593 159.389C163.332 159.389 164.026 159.73 164.48 160.31C164.935 160.895 165.094 161.651 164.912 162.367C164.764 162.936 161.235 176.377 150.369 188.17C142.56 196.621 129.766 205.356 110.182 205.356Z" fill="#604910"/>
<path d="M129.141 202.39C128.914 202.39 128.687 202.39 128.459 202.39C127.141 202.384 126.072 201.31 126.078 199.992C126.084 198.673 127.152 197.61 128.465 197.61C128.698 197.622 128.925 197.61 129.153 197.61C157.683 197.61 175.398 191.296 181.815 178.838C191.539 159.964 172.136 132.593 171.943 132.32C171.175 131.252 171.42 129.757 172.488 128.99C173.557 128.223 175.051 128.461 175.819 129.535C176.694 130.752 197.103 159.578 186.06 181.026C178.763 195.206 159.615 202.39 129.141 202.39Z" fill="#604910"/>
<path d="M45.0454 246.85C44.6475 246.85 44.244 246.748 43.8689 246.538C17.288 231.482 26.8019 188.482 27.2167 186.658C27.5123 185.373 28.791 184.572 30.0755 184.862C31.3599 185.158 32.1669 186.436 31.8714 187.721C31.7748 188.13 22.7326 229.078 46.2218 242.377C47.3699 243.025 47.7734 244.486 47.1255 245.634C46.6878 246.418 45.8808 246.85 45.0454 246.85Z" fill="#604910"/>
<path d="M20.1283 94.9857C19.2872 94.9857 18.4688 94.5368 18.0312 93.7468C17.3946 92.5931 17.8152 91.1381 18.9746 90.5016C44.8338 76.2819 67.3682 77.5379 68.3173 77.6004C69.6358 77.6857 70.6304 78.8223 70.5509 80.1352C70.4656 81.448 69.3233 82.4483 68.0161 82.3687C67.7944 82.3517 45.8511 81.1752 21.2764 94.6902C20.9126 94.8891 20.5205 94.9857 20.1283 94.9857Z" fill="#604910"/>
<path d="M20.1278 118.747C19.4913 118.747 18.8491 118.492 18.383 117.986C17.4851 117.02 17.5362 115.508 18.5024 114.61C43.4977 91.3025 69.2886 87.8584 70.3742 87.722C71.6813 87.5572 72.8748 88.4893 73.0396 89.7964C73.2045 91.1036 72.2724 92.2971 70.9652 92.4619C70.6413 92.5017 45.5266 95.9401 21.7589 118.105C21.2929 118.537 20.7075 118.747 20.1278 118.747Z" fill="#604910"/>
<path d="M47.3393 130.416C46.9983 130.416 46.6516 130.342 46.322 130.188C45.1285 129.626 44.617 128.199 45.1853 127.011C52.6418 111.24 75.7275 97.9639 76.7107 97.4069C77.8588 96.7534 79.3137 97.1569 79.9673 98.2992C80.6209 99.4473 80.2174 100.902 79.075 101.556C78.8477 101.687 56.3133 114.645 49.5046 129.052C49.0898 129.91 48.2316 130.416 47.3393 130.416Z" fill="#604910"/>
<path d="M252.834 96.2591C252.22 96.2591 251.612 96.0261 251.146 95.56C238.052 82.4656 205.293 88.5525 204.969 88.615C203.667 88.8651 202.423 88.0126 202.173 86.7168C201.923 85.421 202.769 84.1707 204.065 83.9206C205.509 83.6421 239.637 77.2881 254.522 92.1785C255.454 93.1105 255.454 94.6223 254.522 95.5544C254.056 96.0261 253.442 96.2591 252.834 96.2591Z" fill="#604910"/>
<path d="M254.341 118.747C253.642 118.747 252.955 118.446 252.483 117.861C237.604 99.4525 202.993 96.2755 202.646 96.2471C201.333 96.1334 200.361 94.9797 200.469 93.6611C200.583 92.3483 201.742 91.3651 203.049 91.4844C204.55 91.6151 240.025 94.8546 256.194 114.854C257.024 115.883 256.865 117.383 255.836 118.213C255.399 118.577 254.864 118.747 254.341 118.747Z" fill="#604910"/>
<path d="M231.732 130.41C230.919 130.41 230.129 129.995 229.68 129.25C219.444 112.194 197.717 105.579 197.501 105.517C196.234 105.141 195.518 103.812 195.893 102.55C196.268 101.282 197.598 100.566 198.859 100.941C199.825 101.226 222.593 108.165 233.772 126.801C234.448 127.932 234.085 129.398 232.954 130.08C232.573 130.302 232.147 130.41 231.732 130.41Z" fill="#604910"/>
<path d="M125.885 49.4C125.044 49.4 124.231 48.9567 123.794 48.1724C115.246 32.7763 111.444 28.9344 110.046 27.9796C109.637 29.6959 109.813 33.9243 110.506 37.7719C110.739 39.0677 109.875 40.3124 108.58 40.5454C107.278 40.7784 106.039 39.9146 105.806 38.6188C104.681 32.3557 104.198 24.5866 108.29 23.1317C111.148 22.1144 115.258 22.9498 127.971 45.8593C128.613 47.013 128.193 48.468 127.039 49.1045C126.675 49.3034 126.277 49.4 125.885 49.4Z" fill="#604910"/>
<path d="M154.996 51.0426C154.728 51.0426 154.461 50.9971 154.194 50.9005C152.95 50.4572 152.302 49.0932 152.745 47.8486C152.83 47.6156 154.825 42.0402 157.485 36.4649C161.719 27.5932 165.01 24.0297 168.454 24.5469C172.205 25.1096 173.938 29.8324 174.433 40.8581C174.489 42.1766 173.472 43.2905 172.154 43.3531C170.846 43.4042 169.721 42.3926 169.659 41.074C169.278 32.532 168.113 30.037 167.669 29.3891C165.459 30.6394 160.719 39.71 157.246 49.4569C156.894 50.4345 155.973 51.0426 154.996 51.0426Z" fill="#604910"/>
<path d="M42.1846 38.5449C42.1335 38.5449 42.0766 38.5449 42.0198 38.5393C31.284 37.8175 23.5831 30.6849 23.2591 30.378C22.2986 29.4743 22.2532 27.9626 23.1568 27.0021C24.0605 26.0416 25.5665 25.9961 26.527 26.8941C26.5952 26.9566 33.3527 33.1628 42.3381 33.7709C43.6566 33.8619 44.6512 34.9985 44.5602 36.3114C44.4807 37.5788 43.4293 38.5449 42.1846 38.5449Z" fill="#604910"/>
<path d="M38.1472 46.2679C38.1074 46.2679 38.079 46.2679 38.0619 46.2679C36.7434 46.2509 35.6863 45.1711 35.7033 43.8525C35.7204 42.5454 36.7832 41.4939 38.0903 41.4939C38.096 41.4939 38.1074 41.4939 38.1187 41.4939C38.1756 41.4996 43.8475 41.5167 47.411 39.016C48.4908 38.2601 49.9799 38.5216 50.7357 39.6014C51.4916 40.6812 51.2302 42.1703 50.1504 42.9261C45.5355 46.1543 38.9997 46.2679 38.1472 46.2679Z" fill="#604910"/>
<path d="M225.912 51.1266C225.224 51.1266 224.542 51.0982 223.86 51.03C222.547 50.905 221.581 49.7399 221.706 48.4271C221.831 47.1142 223.008 46.1537 224.309 46.2731C235.238 47.3131 248.719 37.2934 248.855 37.1911C249.913 36.4011 251.407 36.6114 252.197 37.6628C252.987 38.7142 252.777 40.2146 251.726 41.0046C251.152 41.4422 238.142 51.1266 225.912 51.1266Z" fill="#604910"/>
<path d="M231.323 58.5557C226.686 58.5557 222.367 57.1803 222.145 57.1064C220.889 56.6972 220.201 55.356 220.61 54.0999C221.02 52.8439 222.367 52.1562 223.617 52.5654C223.731 52.5995 229.357 54.3727 233.813 53.5828C235.109 53.3554 236.347 54.2193 236.581 55.5208C236.808 56.8223 235.944 58.0612 234.642 58.2886C233.551 58.4761 232.426 58.5557 231.323 58.5557Z" fill="#604910"/>
<path d="M143.229 249.243C142.291 249.243 141.404 248.686 141.024 247.771C140.518 246.555 141.098 245.157 142.314 244.651C148.509 242.082 165.61 234.091 170.27 228.021C170.679 227.487 170.344 224.009 166.604 220.23C163.444 217.036 151.515 207.829 130.691 223.469C130.123 223.895 129.401 224.049 128.714 223.884C128.026 223.725 127.446 223.264 127.128 222.634C127.06 222.503 120.166 209.096 109.231 205.589C107.975 205.186 107.282 203.845 107.685 202.589C108.089 201.332 109.43 200.639 110.686 201.043C120.547 204.208 127.276 213.586 130.015 218.07C147.991 205.658 162.376 209.17 169.997 216.871C174.766 221.69 176.51 227.732 174.055 230.931C167.661 239.257 145.093 248.669 144.138 249.067C143.843 249.18 143.53 249.243 143.229 249.243Z" fill="#773113"/>
<path d="M254.335 72.0983C253.766 72.0983 253.204 71.8993 252.749 71.4958C251.766 70.6206 251.675 69.1088 252.556 68.1256L269.191 49.4615C269.805 48.7739 270.754 48.5011 271.635 48.7568C272.516 49.0126 273.175 49.7457 273.328 50.6494L274.88 59.7938L300.773 36.765C301.478 36.1398 302.478 35.9864 303.336 36.3728C304.194 36.7593 304.746 37.6118 304.746 38.5495V54.6675L325.382 44.1476C326.558 43.5509 327.996 44.0169 328.593 45.1933C329.19 46.3698 328.724 47.8077 327.547 48.4044L303.439 60.6918C302.7 61.0669 301.819 61.0328 301.108 60.6009C300.398 60.1689 299.966 59.396 299.966 58.5662V43.8635L274.829 66.2217C274.181 66.8014 273.271 66.9776 272.447 66.6877C271.629 66.3979 271.032 65.6931 270.884 64.835L269.441 56.344L256.113 71.3026C255.647 71.8255 254.994 72.0983 254.335 72.0983Z" fill="#773113"/>
<path d="M332.83 103.226H300.077C299.27 103.226 298.514 102.817 298.077 102.141C297.639 101.464 297.571 100.606 297.901 99.8673L303.658 86.9434L275.167 93.8031C274.343 94.0021 273.474 93.7463 272.882 93.1325C272.297 92.5187 272.075 91.6435 272.308 90.8251L275.616 79.1913L259.441 84.6018C258.191 85.0224 256.838 84.3461 256.418 83.0958C255.997 81.8454 256.674 80.4928 257.924 80.0722L278.395 73.2238C279.236 72.9453 280.163 73.1499 280.805 73.7637C281.447 74.3775 281.697 75.2925 281.453 76.145L278.02 88.1994L307.25 81.1634C308.136 80.9474 309.063 81.26 309.642 81.9591C310.222 82.6581 310.358 83.63 309.989 84.4597L303.754 98.4521H332.825C334.143 98.4521 335.212 99.5206 335.212 100.839C335.212 102.158 334.149 103.226 332.83 103.226Z" fill="#773113"/>
<path d="M309.634 164.476C309.328 164.476 309.015 164.414 308.714 164.288L274.597 150.018C273.756 149.665 273.187 148.87 273.136 147.96C273.079 147.051 273.551 146.187 274.341 145.738L292.027 135.696L265.071 126.42C264.202 126.119 263.582 125.352 263.474 124.437C263.366 123.522 263.793 122.63 264.571 122.141L277.399 114.042L263.122 107.268C261.929 106.699 261.423 105.278 261.991 104.085C262.554 102.891 263.98 102.386 265.174 102.954L283.372 111.587C284.156 111.962 284.679 112.735 284.73 113.599C284.781 114.468 284.355 115.298 283.622 115.759L271.334 123.516L298.592 132.894C299.478 133.201 300.104 133.996 300.194 134.934C300.28 135.866 299.814 136.77 298.995 137.23L280.939 147.483L310.567 159.873C311.783 160.384 312.357 161.782 311.851 162.998C311.459 163.925 310.567 164.476 309.634 164.476Z" fill="#773113"/>
<path d="M131 60C119 51.6667 93.4 39.5011 81 59.5011L131 60Z" fill="#BA1647"/>
<path d="M148 62C160.48 53.9331 187.104 42.1565 200 61.5171L148 62Z" fill="#BA1647"/>
<path d="M61.0002 181C47.0002 179.4 48.4995 225.333 49.9995 246C29.5 242 27.3341 204 30.501 185.5C45.701 164.7 59.1684 131.166 64.0018 116.499C85.5018 102.499 133.502 151.499 102.502 141.999C71.5017 132.499 72.5018 199.5 65.0002 179.5C57.0034 158.18 63.0002 142 68.5002 128C74.0002 114 72.0018 118.499 69.5018 121.999C55.1018 144.399 58.0003 170.333 61.0002 181Z" fill="#D27C41"/>
<path d="M144 246.5C141.5 247.5 134.9 252.4 130.5 256C125 260.5 99.5 239 62.5 256C60.1667 257.333 53.7 257.3 46.5 246.5" stroke="#773113" stroke-width="4.7"/>
</g>
<defs>
<clipPath id="clip0_2199_1185">
<rect width="341" height="341" fill="white"/>
</clipPath>
</defs>
</svg>
