<svg width="342" height="342" viewBox="0 0 342 342" fill="none" xmlns="http://www.w3.org/2000/svg">
<g clip-path="url(#clip0_2199_1069)">
<mask id="mask0_2199_1069" style="mask-type:luminance" maskUnits="userSpaceOnUse" x="83" y="154" width="211" height="176">
<path d="M121.803 154.293C121.803 154.293 106.801 156.544 108.801 174.049C110.802 191.554 123.057 199.306 123.057 199.306C123.057 199.306 121.056 229.812 139.063 254.824L131.311 260.324C131.311 260.324 119.056 234.315 103.05 240.317C94.0155 243.703 88.4067 248.845 85.2375 252.681C83.0886 255.286 83.3109 259.105 85.7448 261.447C94.9275 270.294 117.351 294.45 123.028 324.079C123.73 327.744 127.389 330.047 131.003 329.129C144.067 325.812 177.418 320.522 246.342 326.342C341.122 334.345 264.035 155.159 264.035 155.159L121.803 154.293Z" fill="white"/>
</mask>
<g mask="url(#mask0_2199_1069)">
<path d="M121.803 154.293C121.803 154.293 106.801 156.544 108.801 174.049C110.802 191.554 123.057 199.306 123.057 199.306C123.057 199.306 121.056 229.812 139.063 254.824L131.311 260.324C131.311 260.324 119.056 234.315 103.05 240.317C94.0155 243.703 88.4067 248.845 85.2375 252.681C83.0886 255.286 83.3109 259.105 85.7448 261.447C94.9275 270.294 117.351 294.45 123.028 324.079C123.73 327.744 127.389 330.047 131.003 329.129C144.067 325.812 177.418 320.522 246.342 326.342C341.122 334.345 264.035 155.159 264.035 155.159L121.803 154.293Z" fill="#F2E3C5"/>
</g>
<mask id="mask1_2199_1069" style="mask-type:luminance" maskUnits="userSpaceOnUse" x="83" y="154" width="211" height="176">
<path d="M121.803 154.293C121.803 154.293 106.801 156.544 108.801 174.049C110.802 191.554 123.057 199.306 123.057 199.306C123.057 199.306 121.056 229.812 139.063 254.824L131.311 260.324C131.311 260.324 119.056 234.315 103.05 240.317C94.0155 243.703 88.4067 248.845 85.2375 252.681C83.0886 255.286 83.3109 259.105 85.7448 261.447C94.9275 270.294 117.351 294.45 123.028 324.079C123.73 327.744 127.389 330.047 131.003 329.129C144.067 325.812 177.418 320.522 246.342 326.342C341.122 334.345 264.035 155.159 264.035 155.159L121.803 154.293Z" fill="white"/>
</mask>
<g mask="url(#mask1_2199_1069)">
<path opacity="0.5" d="M231.872 288.39C231.872 288.39 250.596 227.566 298.362 229.817L232.402 166.045L122.557 140.287L92.0508 166.045L130.229 248.581L189.68 260.842L204.084 256.858L221.253 266.331L231.872 288.39Z" fill="#9F6236"/>
</g>
<path d="M127.061 180.12C127.049 180.12 127.038 180.12 127.026 180.12C125.938 180.103 125.071 179.202 125.094 178.114C125.265 168.338 129.814 159.948 130.002 159.594C130.526 158.642 131.723 158.289 132.675 158.813C133.627 159.338 133.975 160.535 133.456 161.487C133.416 161.566 129.187 169.404 129.027 178.182C129.01 179.259 128.132 180.12 127.061 180.12Z" fill="#9F6236"/>
<path d="M145.727 183.016C144.679 183.016 143.806 182.189 143.761 181.135C143.407 173.206 147.312 165.471 147.477 165.146C147.973 164.177 149.159 163.795 150.128 164.291C151.097 164.787 151.479 165.973 150.983 166.942C150.926 167.056 147.392 174.112 147.694 180.964C147.739 182.053 146.902 182.97 145.813 183.016C145.79 183.016 145.756 183.016 145.727 183.016Z" fill="#9F6236"/>
<path d="M155.902 37.6719C155.902 37.6719 126.894 39.5073 114.058 58.3458C101.222 77.1843 134.23 113.026 134.23 113.026C134.23 113.026 165.073 85.5177 159.407 58.0095" fill="#543800"/>
<path d="M199.519 291.083C199.519 291.083 188.763 243.317 173.76 242.821C158.758 242.319 168.511 269.827 168.511 269.827C168.511 269.827 145.255 202.305 118.248 216.059C91.2413 229.813 169.246 361.466 212.509 324.205L199.519 291.083Z" fill="#F2E3C5"/>
<path d="M264.039 155.16C338.999 233.803 335.374 326.844 288.634 329.096C256.224 330.657 235.202 337.509 225.358 341.562C222.104 342.901 218.427 341.071 217.487 337.68C214.711 327.676 206.252 306.615 180.488 273.082C178.601 270.625 178.715 267.188 180.745 264.845C184.672 260.314 192.412 254.106 204.827 255.075C224.087 256.575 234.843 312.087 234.843 312.087C234.843 312.087 218.256 255.235 265.27 231.398C265.27 231.398 243.929 222.563 247.93 198.554C251.932 174.546 264.039 155.16 264.039 155.16Z" fill="#F2E3C5"/>
<mask id="mask2_2199_1069" style="mask-type:luminance" maskUnits="userSpaceOnUse" x="104" y="20" width="185" height="159">
<path d="M135.228 102.36C135.228 102.36 120.225 92.3567 109.053 107.314C95.0596 126.044 116.076 178.147 181.415 178.147C246.754 178.147 273.014 153.723 284.613 127.771C296.213 101.819 281.273 44.0093 258.051 30.3749C234.385 16.4783 161.265 12.665 142.028 47.4749C122.79 82.2848 135.228 102.36 135.228 102.36Z" fill="white"/>
</mask>
<g mask="url(#mask2_2199_1069)">
<path d="M135.228 102.36C135.228 102.36 120.225 92.3567 109.053 107.314C95.0596 126.044 116.076 178.147 181.415 178.147C246.754 178.147 273.014 153.723 284.613 127.771C296.213 101.819 281.273 44.0093 258.051 30.3749C234.385 16.4783 161.265 12.665 142.028 47.4749C122.79 82.2848 135.228 102.36 135.228 102.36Z" fill="#F2E3C5"/>
</g>
<mask id="mask3_2199_1069" style="mask-type:luminance" maskUnits="userSpaceOnUse" x="104" y="20" width="185" height="159">
<path d="M135.228 102.36C135.228 102.36 120.225 92.3567 109.053 107.314C95.0596 126.044 116.076 178.147 181.415 178.147C246.754 178.147 273.014 153.723 284.613 127.771C296.213 101.819 281.273 44.0093 258.051 30.3749C234.385 16.4783 161.265 12.665 142.028 47.4749C122.79 82.2848 135.228 102.36 135.228 102.36Z" fill="white"/>
</mask>
<g mask="url(#mask3_2199_1069)">
<path d="M252.093 20.3087C252.093 20.3087 224.835 17.0027 219.084 61.7648C213.333 106.527 243.309 155.04 282.212 147.037C321.114 139.034 287.855 46.7567 274.847 37.004C261.845 27.2513 252.093 20.3087 252.093 20.3087Z" fill="#9F6236"/>
</g>
<mask id="mask4_2199_1069" style="mask-type:luminance" maskUnits="userSpaceOnUse" x="104" y="20" width="185" height="159">
<path d="M135.228 102.36C135.228 102.36 120.225 92.3567 109.053 107.314C95.0596 126.044 116.076 178.147 181.415 178.147C246.754 178.147 273.014 153.723 284.613 127.771C296.213 101.819 281.273 44.0093 258.051 30.3749C234.385 16.4783 161.265 12.665 142.028 47.4749C122.79 82.2848 135.228 102.36 135.228 102.36Z" fill="white"/>
</mask>
<g mask="url(#mask4_2199_1069)">
<path d="M147.31 25.25C147.31 25.25 179.008 41.7572 167.408 72.7652C155.809 103.773 126.551 94.5221 126.551 94.5221L129.053 56.0129L147.31 25.25Z" fill="#9F6236"/>
</g>
<mask id="mask5_2199_1069" style="mask-type:luminance" maskUnits="userSpaceOnUse" x="104" y="20" width="185" height="159">
<path d="M135.228 102.36C135.228 102.36 120.225 92.3567 109.053 107.314C95.0596 126.044 116.076 178.147 181.415 178.147C246.754 178.147 273.014 153.723 284.613 127.771C296.213 101.819 281.273 44.0093 258.051 30.3749C234.385 16.4783 161.265 12.665 142.028 47.4749C122.79 82.2848 135.228 102.36 135.228 102.36Z" fill="white"/>
</mask>
<g mask="url(#mask5_2199_1069)">
<path d="M121.495 128.056C132.475 128.056 141.376 121.329 141.376 113.031C141.376 104.733 132.475 98.0059 121.495 98.0059C110.515 98.0059 101.613 104.733 101.613 113.031C101.613 121.329 110.515 128.056 121.495 128.056Z" fill="black"/>
</g>
<path d="M258.265 37.0059C258.265 37.0059 307.114 41.0073 312.779 67.0164C316.752 85.2393 306.481 108.455 299.977 120.722C297.293 125.789 290.869 127.471 286.007 124.432C273.546 116.652 252.513 98.5488 250.758 64.3545" fill="#543800"/>
<path d="M258.93 176.217C208.747 150.379 187.743 172.381 190.576 187.719C193.409 203.058 212.504 205.389 212.504 205.389C230.84 267.576 277.102 236.067 277.102 236.067" fill="#F2E3C5"/>
<path d="M208.409 183.017C207.502 183.017 206.687 182.39 206.488 181.466C206.397 181.045 204.248 171.018 206.505 162.115C206.773 161.06 207.839 160.422 208.899 160.69C209.953 160.958 210.592 162.029 210.324 163.084C208.3 171.075 210.318 180.537 210.341 180.629C210.575 181.689 209.902 182.738 208.836 182.971C208.694 183.005 208.551 183.017 208.409 183.017Z" fill="#604A3A"/>
<path d="M226.373 181.517C225.621 181.517 224.903 181.084 224.578 180.349C224.492 180.149 222.44 175.35 223.272 163.944C223.352 162.861 224.293 162.052 225.381 162.126C226.464 162.206 227.28 163.146 227.2 164.235C226.453 174.483 228.169 178.736 228.186 178.781C228.602 179.779 228.14 180.936 227.148 181.358C226.903 181.466 226.635 181.517 226.373 181.517Z" fill="#604A3A"/>
<path d="M251.458 244.416C247.565 244.416 243.489 243.835 239.402 242.376C226.349 237.713 216.62 225.287 210.464 205.434C205.351 204.414 190.645 200.253 188 185.923C186.478 177.698 191.927 168.15 200.945 163.22C207.785 159.486 226.406 153.348 251.561 176.963C252.615 177.954 252.672 179.619 251.675 180.673C250.683 181.728 249.018 181.785 247.964 180.787C225.318 159.521 209.295 164.639 203.458 167.826C196.481 171.633 192.058 179.003 193.158 184.965C195.604 198.195 212.652 200.487 212.829 200.509L214.533 200.726L215.024 202.373C220.644 221.428 229.427 233.222 241.135 237.417C257.899 243.425 275.449 231.734 275.626 231.62C276.829 230.805 278.459 231.118 279.274 232.315C280.089 233.512 279.781 235.143 278.584 235.958C277.952 236.397 265.959 244.416 251.458 244.416Z" fill="#604A3A"/>
<mask id="mask6_2199_1069" style="mask-type:luminance" maskUnits="userSpaceOnUse" x="206" y="75" width="40" height="40">
<path d="M225.709 114.617C236.551 114.617 245.34 105.828 245.34 94.9863C245.34 84.1445 236.551 75.3555 225.709 75.3555C214.867 75.3555 206.078 84.1445 206.078 94.9863C206.078 105.828 214.867 114.617 225.709 114.617Z" fill="white"/>
</mask>
<g mask="url(#mask6_2199_1069)">
<path d="M225.709 115.273C236.551 115.273 245.34 106.484 245.34 95.6425C245.34 84.8007 236.551 76.0117 225.709 76.0117C214.867 76.0117 206.078 84.8007 206.078 95.6425C206.078 106.484 214.867 115.273 225.709 115.273Z" fill="white"/>
</g>
<mask id="mask7_2199_1069" style="mask-type:luminance" maskUnits="userSpaceOnUse" x="206" y="75" width="40" height="40">
<path d="M225.709 114.617C236.551 114.617 245.34 105.828 245.34 94.9863C245.34 84.1445 236.551 75.3555 225.709 75.3555C214.867 75.3555 206.078 84.1445 206.078 94.9863C206.078 105.828 214.867 114.617 225.709 114.617Z" fill="white"/>
</mask>
<g mask="url(#mask7_2199_1069)">
<path d="M241.186 92.2039C258.075 92.2039 271.766 83.078 271.766 71.8207C271.766 60.5634 258.075 51.4375 241.186 51.4375C224.297 51.4375 210.605 60.5634 210.605 71.8207C210.605 83.078 224.297 92.2039 241.186 92.2039Z" fill="#9F6236"/>
</g>
<mask id="mask8_2199_1069" style="mask-type:luminance" maskUnits="userSpaceOnUse" x="206" y="75" width="40" height="40">
<path d="M225.709 114.617C236.551 114.617 245.34 105.828 245.34 94.9863C245.34 84.1445 236.551 75.3555 225.709 75.3555C214.867 75.3555 206.078 84.1445 206.078 94.9863C206.078 105.828 214.867 114.617 225.709 114.617Z" fill="white"/>
</mask>
<g mask="url(#mask8_2199_1069)">
<path d="M221.634 104.277C226.673 104.277 230.759 100.191 230.759 95.1511C230.759 90.1111 226.673 86.0254 221.634 86.0254C216.594 86.0254 212.508 90.1111 212.508 95.1511C212.508 100.191 216.594 104.277 221.634 104.277Z" fill="black"/>
</g>
<mask id="mask9_2199_1069" style="mask-type:luminance" maskUnits="userSpaceOnUse" x="135" y="75" width="40" height="40">
<path d="M155.225 114.617C166.066 114.617 174.855 105.828 174.855 94.9863C174.855 84.1445 166.066 75.3555 155.225 75.3555C144.383 75.3555 135.594 84.1445 135.594 94.9863C135.594 105.828 144.383 114.617 155.225 114.617Z" fill="white"/>
</mask>
<g mask="url(#mask9_2199_1069)">
<path d="M155.225 115.273C166.066 115.273 174.855 106.484 174.855 95.6425C174.855 84.8007 166.066 76.0117 155.225 76.0117C144.383 76.0117 135.594 84.8007 135.594 95.6425C135.594 106.484 144.383 115.273 155.225 115.273Z" fill="white"/>
</g>
<mask id="mask10_2199_1069" style="mask-type:luminance" maskUnits="userSpaceOnUse" x="135" y="75" width="40" height="40">
<path d="M155.225 114.617C166.066 114.617 174.855 105.828 174.855 94.9863C174.855 84.1445 166.066 75.3555 155.225 75.3555C144.383 75.3555 135.594 84.1445 135.594 94.9863C135.594 105.828 144.383 114.617 155.225 114.617Z" fill="white"/>
</mask>
<g mask="url(#mask10_2199_1069)">
<path d="M158.223 104.277C163.263 104.277 167.349 100.191 167.349 95.1511C167.349 90.1111 163.263 86.0254 158.223 86.0254C153.183 86.0254 149.098 90.1111 149.098 95.1511C149.098 100.191 153.183 104.277 158.223 104.277Z" fill="black"/>
</g>
<mask id="mask11_2199_1069" style="mask-type:luminance" maskUnits="userSpaceOnUse" x="135" y="75" width="40" height="40">
<path d="M155.225 114.617C166.066 114.617 174.855 105.828 174.855 94.9863C174.855 84.1445 166.066 75.3555 155.225 75.3555C144.383 75.3555 135.594 84.1445 135.594 94.9863C135.594 105.828 144.383 114.617 155.225 114.617Z" fill="white"/>
</mask>
<g mask="url(#mask11_2199_1069)">
<path d="M144.753 91.6512C159.703 91.6512 171.822 82.5253 171.822 71.268C171.822 60.0106 159.703 50.8848 144.753 50.8848C129.803 50.8848 117.684 60.0106 117.684 71.268C117.684 82.5253 129.803 91.6512 144.753 91.6512Z" fill="#9F6236"/>
</g>
<path d="M245.141 94.832C211.055 94.832 201.296 71.7413 200.897 70.7552C200.35 69.41 201 67.8824 202.345 67.3352C203.684 66.7937 205.212 67.4321 205.759 68.7716C206.118 69.6323 214.743 89.5766 245.141 89.5766C246.588 89.5766 247.768 90.7508 247.768 92.2043C247.768 93.6578 246.594 94.832 245.141 94.832Z" fill="#9F6236"/>
<path d="M134.936 95.487C133.488 95.487 132.309 94.3128 132.309 92.8593C132.309 91.4058 133.483 90.2316 134.936 90.2316C165.351 90.2316 173.97 70.2759 174.318 69.4266C174.87 68.0928 176.404 67.4487 177.743 67.9959C179.083 68.5431 179.727 70.0707 179.18 71.4102C178.781 72.3963 169.022 95.487 134.936 95.487Z" fill="#9F6236"/>
<path d="M112.691 34.0067C112.691 34.0067 109.55 15.4988 87.8788 4.49781C66.2074 -6.50319 61.7044 5.66631 63.0382 9.49671C64.372 13.3328 66.7033 20.3324 85.0459 26.3345C103.389 32.3366 112.691 34.0067 112.691 34.0067Z" fill="#74B9EB"/>
<path d="M74.7058 72.8589C74.7058 72.8589 58.8142 62.8725 36.1681 71.7075C13.522 80.5425 19.6039 92.0052 23.3488 93.567C27.0937 95.1288 33.8767 98.0529 50.5663 88.3686C67.2559 78.6843 74.7058 72.8589 74.7058 72.8589Z" fill="#74B9EB"/>
<path d="M65.3065 126.045C65.3065 126.045 46.5364 126.222 32.2522 145.887C17.968 165.552 29.2711 171.919 33.2725 171.206C37.2682 170.494 44.5528 169.297 53.3707 152.134C62.1886 134.971 65.3065 126.045 65.3065 126.045Z" fill="#74B9EB"/>
<path d="M179.021 178.615C162.457 178.615 149.119 173.958 140.152 169.506C127.801 163.373 120.961 156.413 120.676 156.123C119.667 155.085 119.689 153.421 120.727 152.412C121.764 151.403 123.429 151.426 124.438 152.463C124.723 152.754 150.783 178.82 192.222 172.333C193.653 172.111 194.998 173.086 195.22 174.522C195.442 175.953 194.468 177.298 193.031 177.52C188.146 178.278 183.467 178.615 179.021 178.615Z" fill="#604A3A"/>
<path d="M211.425 324.074C210.359 324.074 209.356 323.425 208.963 322.364C202.584 305.276 186.687 282.909 180.144 274.085C177.527 270.557 178.24 265.535 181.734 262.902C192.809 254.54 203.001 252.203 212.024 255.954C234.242 265.182 240.432 308.394 240.689 310.229C240.888 311.665 239.885 312.988 238.449 313.187C237.007 313.381 235.684 312.384 235.491 310.947C235.434 310.525 229.46 268.876 210.012 260.804C202.835 257.823 194.382 259.944 184.903 267.097C183.7 268.003 183.461 269.736 184.367 270.962C191.042 279.962 207.276 302.813 213.888 320.529C214.395 321.886 213.705 323.402 212.349 323.909C212.041 324.023 211.727 324.074 211.425 324.074Z" fill="#604A3A"/>
<path d="M171.037 324.684C170.621 324.684 170.204 324.587 169.817 324.382C169.315 324.12 157.368 317.747 144.218 304.346C132.077 291.972 116.642 271.03 112.082 241.544C108.707 219.736 114.829 213.773 120.552 212.605C133.65 209.949 154.569 231.17 164.784 251.718C165.519 247.272 167.138 243.282 170.467 242.154C175.676 240.398 181.969 245.904 190.901 260.006C191.676 261.232 191.312 262.856 190.086 263.631C188.861 264.407 187.236 264.042 186.461 262.816C175.876 246.098 172.291 247.073 172.148 247.13C170.165 247.802 168.985 256.421 169.72 264.868C169.84 266.231 168.888 267.456 167.543 267.684C166.192 267.912 164.898 267.068 164.561 265.74C158.673 242.456 132.488 215.54 121.601 217.752C116.744 218.738 115.165 227.117 117.274 240.74C125.596 294.56 171.806 319.491 172.268 319.742C173.55 320.42 174.041 322.005 173.368 323.288C172.895 324.171 171.983 324.684 171.037 324.684Z" fill="#604A3A"/>
</g>
<defs>
<clipPath id="clip0_2199_1069">
<rect width="342" height="342" fill="white"/>
</clipPath>
</defs>
</svg>
