<svg width="318" height="318" viewBox="0 0 318 318" fill="none" xmlns="http://www.w3.org/2000/svg">
<mask id="mask0_2199_1145" style="mask-type:luminance" maskUnits="userSpaceOnUse" x="15" y="116" width="288" height="200">
<path d="M131.463 123.007C131.463 123.007 103.765 130.533 73.338 120.389C42.9107 110.245 15.1016 122.053 15.1016 140.688C15.1016 159.323 41.273 167.829 52.7263 167.829C52.7263 167.829 63.851 191.388 88.3847 195.967C88.3847 195.967 74.6418 250.276 84.4574 297.388C84.4574 297.388 69.7552 299.02 68.1705 311.724C67.9055 313.85 69.6121 315.71 71.7533 315.71H128.585C130.186 315.71 131.611 314.661 132.051 313.124C133.721 307.325 139.736 293.789 159.463 293.789C179.476 293.789 186.657 307.712 188.745 313.367C189.265 314.777 190.616 315.71 192.116 315.71H254.656C257.041 315.71 258.78 313.436 258.128 311.141C256.676 306.022 252.266 298.246 238.883 296.736C238.883 296.736 234.304 222.467 227.43 198.257C227.43 198.257 253.602 195.967 262.437 171.757C262.437 171.757 309.877 176.829 302.022 153.519C294.168 130.21 260.714 132.5 249.96 134.137C239.207 135.775 202.891 141.663 192.747 127.592C182.608 113.52 131.463 123.007 131.463 123.007Z" fill="white"/>
</mask>
<g mask="url(#mask0_2199_1145)">
<path d="M131.463 123.007C131.463 123.007 103.765 130.533 73.338 120.389C42.9107 110.245 15.1016 122.053 15.1016 140.688C15.1016 159.323 41.273 167.829 52.7263 167.829C52.7263 167.829 63.851 191.388 88.3847 195.967C88.3847 195.967 74.6418 250.276 84.4574 297.388C84.4574 297.388 69.7552 299.02 68.1705 311.724C67.9055 313.85 69.6121 315.71 71.7533 315.71H128.585C130.186 315.71 131.611 314.661 132.051 313.124C133.721 307.325 139.736 293.789 159.463 293.789C179.476 293.789 186.657 307.712 188.745 313.367C189.265 314.777 190.616 315.71 192.116 315.71H254.656C257.041 315.71 258.78 313.436 258.128 311.141C256.676 306.022 252.266 298.246 238.883 296.736C238.883 296.736 234.304 222.467 227.43 198.257C227.43 198.257 253.602 195.967 262.437 171.757C262.437 171.757 309.877 176.829 302.022 153.519C294.168 130.21 260.714 132.5 249.96 134.137C239.207 135.775 202.891 141.663 192.747 127.592C182.608 113.52 131.463 123.007 131.463 123.007Z" fill="#5B5B5B"/>
</g>
<mask id="mask1_2199_1145" style="mask-type:luminance" maskUnits="userSpaceOnUse" x="15" y="116" width="288" height="200">
<path d="M131.463 123.007C131.463 123.007 103.765 130.533 73.338 120.389C42.9107 110.245 15.1016 122.053 15.1016 140.688C15.1016 159.323 41.273 167.829 52.7263 167.829C52.7263 167.829 63.851 191.388 88.3847 195.967C88.3847 195.967 74.6418 250.276 84.4574 297.388C84.4574 297.388 69.7552 299.02 68.1705 311.724C67.9055 313.85 69.6121 315.71 71.7533 315.71H128.585C130.186 315.71 131.611 314.661 132.051 313.124C133.721 307.325 139.736 293.789 159.463 293.789C179.476 293.789 186.657 307.712 188.745 313.367C189.265 314.777 190.616 315.71 192.116 315.71H254.656C257.041 315.71 258.78 313.436 258.128 311.141C256.676 306.022 252.266 298.246 238.883 296.736C238.883 296.736 234.304 222.467 227.43 198.257C227.43 198.257 253.602 195.967 262.437 171.757C262.437 171.757 309.877 176.829 302.022 153.519C294.168 130.21 260.714 132.5 249.96 134.137C239.207 135.775 202.891 141.663 192.747 127.592C182.608 113.52 131.463 123.007 131.463 123.007Z" fill="white"/>
</mask>
<g mask="url(#mask1_2199_1145)">
<path opacity="0.3" d="M81.516 235.07C81.516 235.07 81.1079 293.789 159.463 293.789L161.127 321.227H62.9766L81.516 235.07Z" fill="#0F296E"/>
</g>
<path d="M234.729 95.8186C229.731 130.613 197.465 145.617 161.069 140.397C124.674 135.171 97.9359 111.692 102.928 76.8976C107.921 42.1031 142.763 9.1689 179.158 14.3947C215.553 19.6205 239.721 61.0241 234.729 95.8186Z" fill="#5B5B5B"/>
<path d="M229.196 55.391C240.668 55.391 249.967 46.0917 249.967 34.6203C249.967 23.149 240.668 13.8496 229.196 13.8496C217.725 13.8496 208.426 23.149 208.426 34.6203C208.426 46.0917 217.725 55.391 229.196 55.391Z" fill="#858585"/>
<path d="M131.462 41.5414C142.933 41.5414 152.233 32.242 152.233 20.7707C152.233 9.29936 142.933 0 131.462 0C119.991 0 110.691 9.29936 110.691 20.7707C110.691 32.242 119.991 41.5414 131.462 41.5414Z" fill="#858585"/>
<ellipse cx="164" cy="101.5" rx="27" ry="23.5" fill="#FFFFF8"/>
<mask id="mask2_2199_1145" style="mask-type:luminance" maskUnits="userSpaceOnUse" x="180" y="56" width="36" height="37">
<path d="M197.812 92.2411C207.565 92.2411 215.472 84.3346 215.472 74.5815C215.472 64.8283 207.565 56.9219 197.812 56.9219C188.059 56.9219 180.152 64.8283 180.152 74.5815C180.152 84.3346 188.059 92.2411 197.812 92.2411Z" fill="white"/>
</mask>
<g mask="url(#mask2_2199_1145)">
<path d="M197.812 92.4266C207.565 92.4266 215.472 84.5202 215.472 74.767C215.472 65.0139 207.565 57.1074 197.812 57.1074C188.059 57.1074 180.152 65.0139 180.152 74.767C180.152 84.5202 188.059 92.4266 197.812 92.4266Z" fill="#001214"/>
<path d="M219.37 83.7495L180.691 61.418L164.333 89.7508L203.011 112.082L219.37 83.7495Z" fill="white"/>
</g>
<mask id="mask3_2199_1145" style="mask-type:luminance" maskUnits="userSpaceOnUse" x="125" y="45" width="37" height="37">
<path d="M143.712 81.1915C153.641 81.1915 161.69 73.1427 161.69 63.2139C161.69 53.2852 153.641 45.2363 143.712 45.2363C133.783 45.2363 125.734 53.2852 125.734 63.2139C125.734 73.1427 133.783 81.1915 143.712 81.1915Z" fill="white"/>
</mask>
<g mask="url(#mask3_2199_1145)">
<path d="M143.712 80.9962C153.641 80.9962 161.69 72.9474 161.69 63.0186C161.69 53.0899 153.641 45.041 143.712 45.041C133.783 45.041 125.734 53.0899 125.734 63.0186C125.734 72.9474 133.783 80.9962 143.712 80.9962Z" fill="#001214"/>
<path d="M167.676 52.2226L119.707 67.7852L127.605 92.1299L175.574 76.5673L167.676 52.2226Z" fill="white"/>
</g>
<path d="M167.807 128.376C165.014 128.376 162.125 128.068 159.2 127.454C141.975 123.818 131.995 111.564 134.931 97.6518C136.452 90.4544 141.122 83.6757 147.752 79.0594C154.743 74.1887 162.814 72.392 170.473 74.0085C178.131 75.625 184.794 80.5275 189.219 87.8097C193.417 94.7156 194.954 102.803 193.438 110.001C191.922 117.177 187.597 122.604 180.925 125.699C177.093 127.475 172.604 128.376 167.807 128.376ZM164.924 78.01C159.942 78.01 154.907 79.653 150.37 82.8118C144.683 86.7762 140.692 92.5267 139.41 98.5952C136.617 111.819 147.81 120.368 160.143 122.97C167.134 124.443 173.828 123.94 178.995 121.539C184.306 119.074 187.751 114.755 188.954 109.052C190.237 102.984 188.906 96.1095 185.308 90.1841C181.545 83.9937 175.943 79.8385 169.53 78.487C168.014 78.169 166.471 78.01 164.924 78.01Z" fill="#45342E"/>
<path d="M111.922 171.036C111.222 167.888 114.763 165.561 117.418 167.385C123.603 171.635 135.279 176.071 157.088 176.071C181.505 176.071 194.899 170.512 201.826 165.874C204.476 164.099 207.926 166.473 207.248 169.595C204.327 182.972 194.183 205.195 159.002 205.195C125.055 205.189 114.922 184.504 111.922 171.036Z" fill="#FFFFF8"/>
<path d="M145.928 72.43C149.862 72.43 153.051 69.2408 153.051 65.3068C153.051 61.3728 149.862 58.1836 145.928 58.1836C141.994 58.1836 138.805 61.3728 138.805 65.3068C138.805 69.2408 141.994 72.43 145.928 72.43Z" fill="black"/>
<path d="M197.151 82.8499C201.085 82.8499 204.274 79.6608 204.274 75.7267C204.274 71.7927 201.085 68.6035 197.151 68.6035C193.217 68.6035 190.027 71.7927 190.027 75.7267C190.027 79.6608 193.217 82.8499 197.151 82.8499Z" fill="black"/>
<path d="M124.892 68.5449C123.928 68.5449 123.032 67.9354 122.719 66.9708C122.327 65.7677 122.979 64.4745 124.182 64.0823L160.402 52.1785C161.606 51.781 162.899 52.4382 163.291 53.6413C163.688 54.8444 163.031 56.1376 161.828 56.5298L125.608 68.4336C125.369 68.5078 125.131 68.5449 124.892 68.5449Z" fill="#001214"/>
<path d="M215.473 82.7748C215.086 82.7748 214.699 82.6794 214.339 82.4727L183.482 64.8396C182.385 64.2142 182.003 62.815 182.629 61.7126C183.254 60.6155 184.659 60.2339 185.756 60.8593L216.612 78.4924C217.71 79.1178 218.091 80.517 217.466 81.6194C217.042 82.3614 216.268 82.7748 215.473 82.7748Z" fill="#001214"/>
<path d="M223.399 47.5667C227.312 47.5667 230.485 44.3942 230.485 40.4806C230.485 36.5671 227.312 33.3945 223.399 33.3945C219.485 33.3945 216.312 36.5671 216.312 40.4806C216.312 44.3942 219.485 47.5667 223.399 47.5667Z" fill="#FFFFF8"/>
<path d="M131.462 32.808C135.516 32.808 138.802 29.5215 138.802 25.4675C138.802 21.4134 135.516 18.127 131.462 18.127C127.408 18.127 124.121 21.4134 124.121 25.4675C124.121 29.5215 127.408 32.808 131.462 32.808Z" fill="#FFFFF8"/>
<path d="M174.769 88.6982C175.475 85.1946 172.932 81.7272 169.09 80.9535C165.248 80.1798 161.561 82.3928 160.856 85.8964C160.15 89.4 162.693 92.8674 166.535 93.6411C170.377 94.4148 174.064 92.2018 174.769 88.6982Z" fill="#001214"/>
<path d="M170.003 106.401C170.881 102.039 168.997 97.9807 165.795 97.3359C162.593 96.691 159.285 99.704 158.407 104.066C157.528 108.427 159.412 112.486 162.615 113.13C165.817 113.775 169.125 110.762 170.003 106.401Z" fill="#001214"/>
<path d="M78.6794 317.953C77.4551 317.953 76.4375 316.988 76.3951 315.753C76.3792 315.329 76.1036 305.371 84.0271 301.602C85.1719 301.062 86.534 301.544 87.0799 302.689C87.6205 303.834 87.1382 305.196 85.9934 305.742C80.81 308.206 80.9743 315.52 80.9743 315.594C81.0114 316.856 80.0256 317.916 78.7642 317.958C78.7324 317.953 78.7059 317.953 78.6794 317.953Z" fill="#0F296E"/>
<path d="M100.268 317.953C99.1288 317.953 98.143 317.105 97.9999 315.95C97.9522 315.584 96.9346 306.876 102.203 301.989C103.13 301.131 104.577 301.184 105.441 302.111C106.3 303.039 106.247 304.486 105.319 305.35C101.779 308.63 102.537 315.319 102.547 315.388C102.696 316.644 101.805 317.783 100.554 317.937C100.459 317.948 100.364 317.953 100.268 317.953Z" fill="#0F296E"/>
<path d="M243.245 318.001C243.224 318.001 243.202 318.001 243.181 318.001C241.92 317.969 240.923 316.919 240.955 315.658C240.96 315.367 240.982 309.097 235.289 305.625C234.208 304.968 233.869 303.558 234.526 302.477C235.183 301.396 236.593 301.057 237.674 301.714C245.688 306.6 245.545 315.398 245.534 315.775C245.497 317.015 244.48 318.001 243.245 318.001Z" fill="#0F296E"/>
<path d="M220.425 317.952C220.329 317.952 220.228 317.947 220.133 317.936C218.882 317.777 217.992 316.632 218.151 315.376C218.167 315.265 218.766 309.896 216.375 304.612C215.856 303.462 216.365 302.105 217.515 301.58C218.67 301.061 220.022 301.57 220.546 302.72C223.504 309.255 222.73 315.678 222.693 315.949C222.545 317.109 221.559 317.952 220.425 317.952Z" fill="#0F296E"/>
<path d="M54.0097 41.5623C57.5872 37.9106 60.2637 34.8578 59.4581 30.9941C58.6419 27.5279 55.3506 25.7948 51.8738 26.5633C48.5507 27.3 46.1657 30.1143 46.277 33.607C46.2982 34.349 45.8 35.0009 45.0792 35.1599C42.0476 35.833 34.6859 37.4601 31.4529 38.1756C30.589 38.3664 29.7304 37.7887 29.5979 36.9142C27.5839 23.431 36.6204 15.4545 48.9111 12.7303C63.0038 9.61393 74.7274 13.6207 77.4728 26.0227C79.2483 34.0575 75.9305 39.7656 70.3284 44.949C66.1361 48.9293 64.2387 52.1623 65.4524 57.6584C65.6379 58.4905 65.1132 59.312 64.2811 59.4922L52.0699 62.1952C51.2378 62.3807 50.4163 61.856 50.2361 61.0239C47.7451 49.9946 49.7114 45.9666 54.0097 41.5623ZM59.2567 64.8399C64.0479 63.7799 69.2154 66.8751 70.3655 71.8412C71.4414 76.9239 68.06 81.9112 63.2688 82.9712C58.2444 84.0842 53.2147 80.9572 52.1388 75.8745C50.9887 70.9084 54.2323 65.9529 59.2567 64.8399Z" fill="#38D700"/>
</svg>
