<?xml version="1.0" encoding="UTF-8"?><svg id="a" xmlns="http://www.w3.org/2000/svg" viewBox="0 0 1921.07 1081.09"><defs><style>.c{fill:#f9fd8b;}.d{fill:#70a68f;}.e{fill:#5a8d78;}.f{fill:#558672;}</style></defs><g id="b"><g><path class="d" d="M1061.26,640.59c-26.5,8.71-53.04,17.31-79.48,26.19-13.53,4.54-26.86,9.72-40.37,14.34-6.91,2.36-13.93,4.13-21.49,2.87-3.32-.55-6.91,.48-10.78,.35,.62-2.05,1.65-3.66,2.68-5.28-9.22-5.53-9.69-6.46-13.59-17.1-4.57-12.46-5.81-25.34-6.82-38.46-1.08-14-3.68-27.8-1.85-42,2.41-18.67,3.3-37.57,6.31-56.13,4.11-25.28,11.11-49.88,23.77-72.43,6.19-11.01,13.42-21.29,23.45-29.34,2.55-2.05,4.38-4.99,6.53-7.53,10.86-1.94,21.73-3.88,33.34-5.77,1.95-.06,3.14-.17,4.33-.27,1.95,.18,3.89,.36,6.32,.91,.22,2.95-1.78,6.29,2.78,7,9.37,1.46,15.61,7.94,21.93,13.93,14.11,13.39,25.23,29.13,34.46,46.21,20,37.01,30.77,76.48,29.7,118.63-.37,14.69-3.48,29.34-14.38,40.76-1.03,.5-2.07,.99-3.59,1.6-.86,.1-1.06,.26-1.09,.6-.36,.14-.72,.28-1.59,.59-.49,.19-.57,.33-.57,.33Zm-11.97-26.82c-6.95,1.52-14.05,2.55-20.83,4.65-24.88,7.71-49.67,15.69-74.43,23.76-5.03,1.64-9.84,4.02-14.63,6.31-1.18,.56-1.88,2.12-2.79,3.22,30.91-9.06,60.31-20.57,91.09-27.73-4.67,2.58-9.56,4.55-14.36,6.71-23.17,10.45-46.34,20.92-69.45,31.52-1.98,.91-3.52,2.77-5.27,4.18,.34,.55,.68,1.1,1.02,1.65,2.1-.66,4.29-1.12,6.29-2.01,23.85-10.55,47.68-21.15,71.51-31.75,12.14-5.4,24.31-10.75,36.39-16.3,1.21-.56,1.85-2.36,2.75-3.59-1.37-.5-2.7-1.16-4.11-1.43-.71-.11-1.56,.46-3.18,.81Zm-14.08-63.29c-.24-1.73-.07-3.64-.78-5.15-3.55-7.54-2.92-15.35-2.44-23.34,1.88-.12,3.21-.12,4.51-.29,8.9-1.15,13.39-7.78,15.05-17.41,.97-5.65-4.53-11.12-12.08-13.15-10.09-2.71-16.86,2.21-16.73,12.41,.07,5.28,.38,10.58,1,15.82,1.18,9.98,2.43,19.96,4.1,29.87,.86,5.07,2.96,5.44,7.37,1.24Zm-90.48,9.78c-4.41-4.42-8.82-8.84-13.41-13.43,6.92-4.67,9.46-11.15,11.12-18.01,1.36-5.61-2.75-10.7-8.53-11.08-12.3-.82-20.92,7.68-19.02,19.81,1.6,10.26,4.28,20.37,6.87,30.45,.8,3.12,2.87,5.92,4.36,8.87,.8-.28,1.6-.56,2.4-.84-2.55-8.85-5.1-17.7-7.77-26.97,8.66,1.04,12.76,7.35,17.91,12.38,3.13,3.06,6.91,5.53,10.66,7.85,.87,.54,2.79-.6,4.22-.97-.65-1.2-1.03-2.74-2.01-3.54-1.91-1.57-4.16-2.71-6.8-4.52Zm42.87,31.92c-7.51,5.47-16.03,8.49-25,10.63-8.7,2.07-17.29,4.59-25.87,7.12-1.9,.56-3.53,2.01-5.28,3.06,.26,.57,.51,1.15,.77,1.72,1.85-.3,3.74-.45,5.55-.91,6.41-1.65,12.74-3.71,19.21-5.06,12.76-2.66,25.01-6.12,35.65-14.34,4.36-3.37,9.8-6.32,15.14-7.28,16.73-3.02,33.65-5,50.49-7.39,1.06-.15,2.11-.41,3.42-.67-1.03-4.26-4.11-4.61-7.03-4.24-12.94,1.66-25.88,3.4-38.78,5.41-10.12,1.56-19.66,4.79-28.27,11.95Zm-3.82-49.14c1.29,5.77,2.08,11.42-2.19,16.53-.62,.75-.21,2.36-.27,3.58,1.41,0,2.92,.33,4.22-.05,3.24-.96,6.4-2.2,9.57-3.39,1.52-.57,3.2-1.01,4.4-2.01,.92-.77,1.2-2.31,1.76-3.5-1.32-.4-2.69-1.27-3.94-1.12-2.67,.32-5.27,1.16-8.74,1.98,.92-13.51-1.26-25.57-7.18-37.26,3.24-1.15,5.93-1.9,8.42-3.09,1.09-.52,1.77-1.93,2.63-2.93-1.18-.68-2.5-2.12-3.51-1.93-5.48,1.08-10.91,2.48-16.28,4.01-.9,.26-1.45,1.73-2,2.44,2.45,1.49,5.37,2.21,5.97,3.81,2.73,7.21,4.79,14.67,7.14,22.93Zm-22.37,86.89c-4.37,1.59-8.81,3.01-13.08,4.84-2.09,.89-6.29,.16-5,4.28,.24,.76,4.78,1.03,6.84,.24,23.84-9.2,47.59-18.62,71.33-28.09,1.56-.62,2.75-2.18,4.12-3.3l-.81-1.44c-6.61,1.88-13.41,3.28-19.8,5.75-14.4,5.56-28.58,11.65-43.6,17.72Zm47.32-30.69c-1.07,.45-2.12,.97-3.21,1.35-17.06,5.94-34.14,11.83-51.16,17.89-1.13,.4-1.8,2.07-2.69,3.16,.49,.55,.97,1.11,1.46,1.66,26.93-11.54,56.11-16.86,82.7-29.7-1.61-4-3.43-3.59-5.97-2.54-6.72,2.79-13.59,5.26-21.13,8.18Zm-41.81-35.31c1.56,.38,3.11,.76,4.67,1.14,.33-1.39,1-2.82,.85-4.15-.09-.76-1.52-1.37-2.35-2.04-1.12,1.43-2.23,2.86-3.17,5.05Z"/><path class="f" d="M949.25,416c-1.77,2.61-3.6,5.56-6.15,7.61-10.03,8.05-17.27,18.33-23.45,29.34-12.67,22.55-19.66,47.14-23.77,72.43-3.02,18.56-3.91,37.46-6.31,56.13-1.83,14.19,.78,28,1.85,42,1.01,13.12,2.25,26.01,6.82,38.46,3.9,10.64,4.38,11.57,13.59,17.1-1.03,1.62-2.06,3.23-3.12,5.19-16.16,6.02-27.36,2.39-36-12.38-.27-.85-.48-1.05-.79-1.15,0,0-.27-.36-.34-.83-.32-.7-.56-.93-.8-1.17,0,0-.24-.3-.28-.76-.3-.72-.55-.97-.8-1.23-.31-.48-.62-.95-1.02-1.93-.19-.79-.39-.99-.68-1.09,0,0-.28-.4-.34-1.01-2.02-7.39-4.23-14.11-5.85-20.97-.93-3.94-.88-8.11-1.27-12.18,.01-1.31,.02-2.61,.09-4.68-.21-1.89-.49-3.02-.77-4.15-.13-1-.26-2-.3-3.73-.16-1.57-.4-2.42-.65-3.27-.15-1.32-.31-2.64-.36-4.77-.22-2.62-.53-4.43-.85-6.23-.11-.67-.21-1.34-.2-2.79-.17-2.92-.47-5.06-.77-7.2-.22-3.11-.43-6.22-.4-10.09,.12-8.78-.01-16.8-.14-24.83,.12-2.11,.23-4.23,.71-7.02,.42-2.93,.47-5.18,.53-7.43,.06-.99,.11-1.98,.52-3.61,.36-1.92,.38-3.21,.39-4.49,.07-.96,.14-1.93,.54-3.41,.26-1.38,.21-2.24,.15-3.1,.1-.76,.19-1.52,.68-2.83,.67-2.75,.95-4.95,1.22-7.15,.08-.46,.16-.93,.68-1.87,.59-1.47,.73-2.46,.88-3.45,.06-.4,.13-.81,.5-1.66,.35-.79,.38-1.12,.42-1.46,.07-.38,.14-.76,.58-1.62,.76-2.05,1.15-3.62,1.54-5.18,.07-.42,.14-.84,.52-1.7,.51-.71,.56-1.01,.46-1.34,.07-.41,.15-.82,.53-1.67,.51-.7,.57-1,.48-1.32,0,0,.04-.44,.38-.82,.44-.96,.55-1.54,.65-2.12,0,0,.05-.47,.37-.85,.36-.73,.41-1.08,.46-1.42,.08-.37,.16-.73,.57-1.52,.38-.75,.44-1.07,.5-1.4,8.69-29.29,22.81-54.5,51.6-68.69,1.18-.58,2.32-1.32,3.35-2.15,7.29-5.85,15.17-5.98,23.85-2.54Z"/><path class="c" d="M1068.42,637.46c10.6-11.39,13.7-26.04,14.08-40.73,1.07-42.14-9.7-81.62-29.7-118.63-9.23-17.08-20.35-32.82-34.46-46.21-6.32-5.99-12.56-12.47-21.93-13.93-4.56-.71-2.56-4.06-2.36-7.02,3.68-5.14,8.92-5.46,13.4-2.95,8.47,4.75,16.76,10.02,24.46,15.94,15.19,11.69,26.47,26.92,36.77,42.9,.53,.82,.78,1.82,1.49,3.29,2.58,4.77,4.9,8.95,7.05,13.21,3.01,5.96,5.89,11.99,8.82,18,3.85,15.76,8.68,31.37,11.23,47.34,2.16,13.53,2.37,27.49,2.14,41.23-.17,9.87-2.13,19.77-3.96,29.53-1.4,7.48-12.17,14.59-19.83,14.7-2.32,.03-4.61,2.14-7.2,3.33Z"/><path class="d" d="M860.26,629.75c.68,3.89,.63,8.06,1.56,12,1.61,6.86,3.83,13.58,5.78,20.73-10.13-8.15-13.26-21.66-7.34-32.73Z"/><path class="d" d="M1086.06,501c-2.95-5.67-5.83-11.7-8.84-17.67-2.15-4.26-4.48-8.44-6.94-12.83,1.11,1.15,2.92,2.24,3.69,3.84,4.17,8.71,8.09,17.54,12.09,26.66Z"/><path class="d" d="M856.05,558.27c.28,7.59,.42,15.61,.36,23.98-.29-7.62-.4-15.59-.36-23.98Z"/><path class="d" d="M860.74,519.09c-.07,1.91-.34,4.11-.85,6.5,.05-1.94,.34-4.07,.85-6.5Z"/><path class="d" d="M857.24,543.68c.15,1.95,.09,4.2-.24,6.73-.18-1.95-.08-4.19,.24-6.73Z"/><path class="d" d="M856.61,593.03c.43,1.86,.72,4,.93,6.58-.41-1.8-.73-4.05-.93-6.58Z"/><path class="d" d="M857.59,603.02c.44,1.53,.75,3.34,.98,5.56-.43-1.49-.77-3.39-.98-5.56Z"/><path class="d" d="M865.3,503.78c-.13,1.33-.52,2.9-1.18,4.69,.13-1.34,.53-2.9,1.18-4.69Z"/><path class="d" d="M858.16,535.52c.17,1.04,.16,2.33-.12,3.89-.2-1.04-.13-2.34,.12-3.89Z"/><path class="c" d="M987.02,409.96c-.9,.18-2.09,.29-3.55,.26,.9-.21,2.08-.27,3.55-.26Z"/><path class="d" d="M858.9,528.99c.2,.64,.26,1.5,.08,2.53-.23-.66-.23-1.48-.08-2.53Z"/><path class="d" d="M862.27,513.69c.08,.79-.06,1.78-.46,2.94-.09-.8,.07-1.77,.46-2.94Z"/><path class="d" d="M859.8,621.1c.34,.78,.62,1.91,.84,3.4-.34-.77-.62-1.91-.84-3.4Z"/><path class="d" d="M858.85,614.08c.32,.51,.56,1.36,.73,2.55-.32-.51-.56-1.36-.73-2.55Z"/><path class="d" d="M868.34,494.78c.13,.39,.03,.97-.32,1.73-.13-.39-.02-.96,.32-1.73Z"/><path class="c" d="M1063.55,639.68c-.09-.33,.11-.5,.6-.38-.05,.26-.25,.35-.6,.38Z"/><path class="d" d="M869.2,492.5c.16,.17,.11,.52-.15,1.04-.16-.18-.11-.53,.15-1.04Z"/><path class="d" d="M870.26,489.56c.14,.17,.09,.5-.17,.99-.15-.17-.09-.5,.17-.99Z"/><path class="d" d="M863.23,510.53c.16,.16,.12,.5-.11,1-.16-.16-.12-.5,.11-1Z"/><path class="d" d="M866.34,500.65c.29,.19,.24,.49-.14,.9-.32-.18-.28-.48,.14-.9Z"/><path class="c" d="M1061.27,640.6s.08-.14,.06-.08c-.03,.07-.06,.08-.06,.08Z"/><path class="d" d="M868,663.95c.29-.12,.49,.08,.62,.58-.28,.13-.5-.06-.62-.58Z"/><path class="d" d="M869.72,667.02c.23-.02,.49,.24,.74,.77-.24,.02-.48-.24-.74-.77Z"/><path class="d" d="M870.8,668.99c.23-.03,.46,.21,.72,.69-.23,.03-.47-.2-.72-.69Z"/><path class="d" d="M871.93,670.96c.3-.13,.51,.07,.67,.59-.3,.15-.53-.04-.67-.59Z"/><path class="d" d="M867.35,497.66c.29,.19,.23,.49-.16,.9-.31-.19-.26-.49,.16-.9Z"/><path class="e" d="M1049.7,613.72c1.21-.3,2.06-.87,2.78-.73,1.41,.27,2.74,.93,4.11,1.43-.9,1.23-1.54,3.03-2.75,3.59-12.07,5.55-24.24,10.9-36.39,16.3-23.83,10.59-47.66,21.2-71.51,31.75-2,.89-4.19,1.35-6.29,2.01-.34-.55-.68-1.1-1.02-1.65,1.74-1.42,3.29-3.28,5.27-4.18,23.11-10.59,46.28-21.06,69.45-31.52,4.8-2.17,9.7-4.13,14.36-6.71-30.78,7.16-60.19,18.67-91.09,27.73,.92-1.1,1.62-2.66,2.79-3.22,4.79-2.29,9.6-4.67,14.63-6.31,24.76-8.07,49.56-16.05,74.43-23.76,6.77-2.13,13.87-3.16,21.23-4.73Z"/><path class="e" d="M1034.98,550.78c-4.18,3.9-6.28,3.53-7.14-1.55-1.67-9.91-2.92-19.89-4.1-29.87-.62-5.24-.93-10.54-1-15.82-.13-10.19,6.64-15.12,16.73-12.41,7.55,2.03,13.05,7.5,12.08,13.15-1.66,9.63-6.15,16.26-15.05,17.41-1.3,.17-2.63,.17-4.51,.29-.47,8-1.11,15.8,2.44,23.34,.71,1.51,.54,3.43,.55,5.46Zm-3.01-36.27c3.97-1.97,8.1-3.7,11.87-5.99,3.31-2.01,3.43-4.99,1.05-8.04-2.23-2.86-10.93-5.15-14.23-3.45-.87,.45-1.75,2.08-1.63,3.05,.56,4.72,1.46,9.4,2.94,14.43Z"/><path class="e" d="M944.99,560.5c2.37,1.56,4.62,2.71,6.54,4.27,.98,.8,1.36,2.34,2.01,3.54-1.43,.37-3.35,1.51-4.22,.97-3.74-2.32-7.52-4.79-10.66-7.85-5.15-5.03-9.25-11.34-17.91-12.38,2.67,9.27,5.22,18.12,7.77,26.97-.8,.28-1.6,.56-2.4,.84-1.49-2.95-3.56-5.75-4.36-8.87-2.59-10.08-5.27-20.19-6.87-30.45-1.89-12.13,6.72-20.63,19.02-19.81,5.78,.39,9.89,5.47,8.53,11.08-1.66,6.86-4.2,13.34-11.12,18.01,4.59,4.6,9,9.02,13.67,13.68Zm-7.51-35.9c-.29-.4-.49-.99-.89-1.17-8.1-3.7-16.9,1.92-16.92,10.78,0,2,.08,3.99-.01,5.98-.12,2.86,.85,3.78,3.87,3.16,9.53-1.92,13.74-7.1,13.95-18.75Z"/><path class="e" d="M987.88,591.95c8.33-6.93,17.87-10.16,27.99-11.74,12.89-2.01,25.83-3.75,38.78-5.41,2.91-.37,5.99-.02,7.03,4.24-1.3,.26-2.35,.52-3.42,.67-16.84,2.39-33.76,4.37-50.49,7.39-5.34,.96-10.77,3.91-15.14,7.28-10.63,8.22-22.89,11.68-35.65,14.34-6.47,1.35-12.8,3.41-19.21,5.06-1.81,.47-3.7,.62-5.55,.91-.26-.57-.51-1.15-.77-1.72,1.75-1.04,3.39-2.5,5.28-3.06,8.58-2.53,17.17-5.05,25.87-7.12,8.98-2.12,17.49-5.14,25.28-10.84Z"/><path class="f" d="M983.75,542.59c-2.32-7.81-4.38-15.27-7.1-22.48-.6-1.6-3.52-2.32-5.97-3.81,.55-.7,1.1-2.18,2-2.44,5.38-1.54,10.8-2.93,16.28-4.01,1-.2,2.33,1.24,3.51,1.93-.86,1-1.54,2.41-2.63,2.93-2.49,1.19-5.19,1.94-8.42,3.09,5.92,11.69,8.1,23.75,7.18,37.26,3.46-.82,6.07-1.67,8.74-1.98,1.25-.15,2.62,.71,3.94,1.12-.56,1.2-.84,2.74-1.76,3.5-1.2,1-2.88,1.44-4.4,2.01-3.17,1.19-6.33,2.44-9.57,3.39-1.3,.38-2.81,.06-4.22,.05,.07-1.21-.35-2.83,.27-3.58,4.26-5.11,3.46-10.76,2.15-16.98Z"/><path class="e" d="M961.78,629.83c14.64-5.97,28.83-12.06,43.23-17.62,6.39-2.47,13.19-3.87,19.8-5.75l.81,1.44c-1.36,1.12-2.55,2.67-4.12,3.3-23.73,9.47-47.49,18.89-71.33,28.09-2.06,.79-6.6,.52-6.84-.24-1.29-4.13,2.91-3.39,5-4.28,4.27-1.83,8.71-3.25,13.45-4.94Z"/><path class="e" d="M1009.1,599.08c7.17-2.76,14.04-5.23,20.77-8.03,2.53-1.05,4.36-1.47,5.97,2.54-26.59,12.85-55.77,18.17-82.7,29.7-.49-.55-.97-1.11-1.46-1.66,.89-1.08,1.56-2.75,2.69-3.16,17.02-6.06,34.1-11.95,51.16-17.89,1.09-.37,2.13-.89,3.57-1.5Z"/><path class="e" d="M966.83,563.55c1.03-1.81,2.14-3.24,3.25-4.67,.83,.68,2.27,1.28,2.35,2.04,.15,1.33-.52,2.76-.85,4.15-1.55-.38-3.11-.76-4.75-1.52Z"/><path class="d" d="M1031.62,514.34c-1.13-4.86-2.03-9.54-2.58-14.25-.12-.97,.76-2.61,1.63-3.05,3.31-1.69,12,.6,14.23,3.45,2.38,3.05,2.26,6.03-1.05,8.04-3.78,2.29-7.91,4.01-12.23,5.81Z"/><path class="d" d="M937.57,525.02c-.29,11.23-4.5,16.42-14.02,18.34-3.03,.61-4-.3-3.87-3.16,.09-1.99,0-3.99,.01-5.98,.02-8.86,8.83-14.48,16.92-10.78,.38,.17,.58,.76,.96,1.58Z"/></g></g></svg>